<svg width="1440" height="780" viewBox="0 0 1440 780" fill="none" xmlns="http://www.w3.org/2000/svg">
<g clip-path="url(#clip0_6197_9976)">
<rect x="-1151" y="-1350" width="2057" height="2057" rx="1028.5" fill="url(#paint0_radial_6197_9976)"/>
<g opacity="0.05">
<path d="M-128.852 -922.439C-128.142 -917.474 -117.503 -803.984 -57.9207 -678.436C22.9405 -507.493 155.581 -395.422 325.815 -354.992C632.946 -281.933 693.946 -67.7216 696.074 -59.2099C696.074 -59.2099 751.4 113.152 770.552 226.641L816.657 -165.606C814.529 -174.118 753.528 -388.329 446.398 -461.388C276.873 -501.819 144.232 -613.18 62.6618 -784.833C3.07985 -910.38 -7.55978 -1023.87 -8.2691 -1028.83L-128.852 -922.439Z" fill="#111111"/>
<path d="M-128.849 -922.439C-128.139 -917.474 -117.5 -803.985 -57.9178 -678.437C22.9434 -507.494 155.584 -395.423 325.818 -354.993C632.949 -281.934 693.949 -67.7225 696.077 -59.2108C696.077 -59.2108 751.403 113.151 770.555 226.641V595.481L711.682 428.084C690.403 298.281 626.565 101.802 626.565 101.802C623.728 91.8719 554.216 -152.13 203.817 -235.119C10.1758 -281.224 -140.907 -408.191 -233.826 -603.96C-301.92 -746.531 -313.978 -877.044 -314.688 -882.009V-921.73H-128.849V-922.439Z" fill="url(#paint1_linear_6197_9976)" fill-opacity="0.1"/>
<path d="M-314.688 -882.718C-313.978 -877.044 -301.92 -747.24 -233.826 -604.669C-140.907 -409.609 10.1758 -281.934 203.817 -235.829C554.216 -152.84 623.728 91.8719 626.565 101.093C626.565 101.093 690.403 297.571 711.682 427.375L770.555 594.772V1218.96H710.264C671.252 840.902 632.24 766.425 603.867 597.609C579.751 455.038 510.238 239.408 510.238 239.408C507.401 228.768 430.796 -40.0594 45.6412 -130.851C-167.151 -181.212 -333.13 -321.655 -435.27 -535.866C-509.747 -692.623 -523.224 -835.904 -523.934 -841.578V-922.439H-313.978V-882.718H-314.688Z" fill="#111111"/>
<path d="M-524.641 -842.288C-523.931 -836.613 -510.454 -693.333 -435.977 -536.576C-333.837 -321.655 -167.858 -181.921 44.9342 -131.56C430.089 -40.0596 506.694 228.059 509.531 238.699C509.531 238.699 579.044 455.038 603.16 596.9C631.532 765.715 671.254 840.193 709.556 1218.25L560.602 1317.56C515.915 967.868 493.217 854.379 461.298 705.424C420.158 511.783 359.867 338.002 359.867 338.002C357.03 327.362 280.425 58.5343 -104.73 -32.2572C-317.522 -82.6181 -483.501 -223.061 -585.641 -437.272C-660.119 -594.03 -673.595 -737.31 -674.305 -742.984V-922.439H-525.35V-842.288H-524.641Z" fill="url(#paint2_linear_6197_9976)" fill-opacity="0.1"/>
<path d="M560.598 1318.27C515.912 968.58 493.214 855.091 461.295 706.136C420.155 512.495 359.864 338.714 359.864 338.714C357.026 328.074 280.421 59.2465 -104.733 -31.5451C-317.526 -81.906 -483.504 -222.349 -585.644 -436.56L-612.598 -498.979L-726.797 -330.873C-624.656 -115.953 -458.678 23.7809 -245.886 74.1419C139.269 165.643 215.874 433.761 218.711 444.401C218.711 444.401 278.293 618.182 320.143 811.823C352.061 960.778 374.759 1074.98 419.446 1423.96L560.598 1318.27Z" fill="#111111"/>
<path d="M418.738 1424.66C374.052 1074.97 351.354 961.485 319.435 812.53C278.295 618.889 218.003 445.108 218.003 445.108C215.166 434.469 138.561 165.641 -246.594 74.8493C-459.386 24.4884 -625.364 -115.955 -727.505 -330.166L-862.273 -209.584C-760.133 5.33698 -594.155 145.071 -381.362 195.432C3.7923 286.933 80.3976 555.051 83.2348 565.691C83.2348 565.691 142.817 739.472 184.666 933.113C216.585 1082.07 239.283 1196.27 283.969 1545.25L418.738 1424.66Z" fill="url(#paint3_linear_6197_9976)" fill-opacity="0.1"/>
<path d="M283.972 1545.25C239.285 1195.56 216.587 1082.07 184.669 933.113C143.529 739.471 83.2373 565.691 83.2373 565.691C80.4 555.051 3.7948 286.223 -381.36 195.432C-594.152 145.071 -760.131 4.62772 -862.271 -209.583L-1004.13 -67.7218C-901.992 147.199 -736.014 286.933 -523.222 337.294C-138.067 428.794 -61.4617 696.913 -58.6245 707.553C-58.6245 707.553 0.957642 881.333 42.8069 1074.97C74.7257 1223.93 97.4236 1338.13 142.11 1687.11L283.972 1545.25Z" fill="#111111"/>
<path d="M142.107 1687.11C97.4207 1337.42 74.7228 1223.93 42.8038 1074.97C1.66394 881.332 -58.6274 707.552 -58.6274 707.552C-61.4646 696.912 -138.07 428.084 -523.224 337.292C-736.017 286.932 -901.995 146.488 -1004.14 -67.7229L-1160.18 45.7665C-1058.04 260.687 -892.065 400.421 -679.272 450.782C-294.118 542.283 -217.513 810.401 -214.675 821.041C-214.675 821.041 -155.093 994.822 -113.244 1188.46C-81.3251 1337.42 -58.6273 1451.62 -13.9408 1800.6L142.107 1687.11Z" fill="url(#paint4_linear_6197_9976)" fill-opacity="0.1"/>
</g>
</g>
<defs>
<radialGradient id="paint0_radial_6197_9976" cx="0" cy="0" r="1" gradientUnits="userSpaceOnUse" gradientTransform="translate(-122.5 -321.5) rotate(90) scale(1028.5)">
<stop stop-color="#0157FF"/>
<stop offset="1" stop-color="#0157FF" stop-opacity="0"/>
</radialGradient>
<linearGradient id="paint1_linear_6197_9976" x1="227.934" y1="-922.439" x2="227.934" y2="595.481" gradientUnits="userSpaceOnUse">
<stop stop-color="white"/>
<stop offset="1" stop-color="white" stop-opacity="0"/>
</linearGradient>
<linearGradient id="paint2_linear_6197_9976" x1="17.6259" y1="-922.439" x2="17.6259" y2="1317.56" gradientUnits="userSpaceOnUse">
<stop stop-color="white"/>
<stop offset="1" stop-color="white" stop-opacity="0"/>
</linearGradient>
<linearGradient id="paint3_linear_6197_9976" x1="-221.768" y1="-330.166" x2="-221.768" y2="1545.25" gradientUnits="userSpaceOnUse">
<stop stop-color="white"/>
<stop offset="1" stop-color="white" stop-opacity="0"/>
</linearGradient>
<linearGradient id="paint4_linear_6197_9976" x1="-509.038" y1="-67.7229" x2="-509.038" y2="1800.6" gradientUnits="userSpaceOnUse">
<stop stop-color="white"/>
<stop offset="1" stop-color="white" stop-opacity="0"/>
</linearGradient>
<clipPath id="clip0_6197_9976">
<rect width="1440" height="780" fill="white"/>
</clipPath>
</defs>
</svg>
