<svg width="36" height="36" viewBox="0 0 36 36" fill="none" xmlns="http://www.w3.org/2000/svg">
<rect width="36" height="36" rx="18" fill="#3571F0" fill-opacity="0.2"/>
<path d="M14.2032 12.4585C14.7357 12.4585 15.2282 12.5002 15.6782 12.6235C16.129 12.706 16.4982 12.871 16.8257 13.0768C17.154 13.2829 17.3998 13.5716 17.5632 13.9427C17.7273 14.3135 17.8098 14.7677 17.8098 15.2618C17.8098 15.8393 17.6865 16.3335 17.3998 16.7043C17.154 17.076 16.744 17.4052 16.2523 17.6527C16.949 17.8593 17.4815 18.2302 17.8098 18.7243C18.1382 19.2185 18.3423 19.8377 18.3423 20.5385C18.3423 21.116 18.219 21.6102 18.014 22.0227C17.8098 22.4352 17.4815 22.806 17.1123 23.0535C16.7111 23.3185 16.2679 23.5135 15.8015 23.6302C15.3098 23.7543 14.8182 23.8368 14.3265 23.8368H8.83398V12.4585H14.2032ZM13.8748 17.0752C14.3257 17.0752 14.6948 16.9518 14.9815 16.746C15.2682 16.5402 15.3915 16.1685 15.3915 15.7152C15.3915 15.4677 15.3498 15.2202 15.2682 15.056C15.1865 14.8918 15.0632 14.7668 14.8998 14.6435C14.7328 14.5497 14.5532 14.4804 14.3665 14.4377C14.1615 14.396 13.9573 14.396 13.7107 14.396H11.334V17.076L13.8748 17.0752ZM13.9982 21.9402C14.244 21.9402 14.4898 21.8985 14.6948 21.8577C14.8998 21.816 15.1048 21.7343 15.2682 21.6102C15.4345 21.4888 15.574 21.3345 15.6782 21.1568C15.7598 20.951 15.8423 20.7035 15.8423 20.4152C15.8423 19.8377 15.6782 19.4252 15.3507 19.1368C15.0223 18.8893 14.5715 18.766 14.039 18.766H11.334V21.941L13.9982 21.9402ZM21.9081 21.8985C22.2359 22.2285 22.7276 22.3935 23.3832 22.3935C23.834 22.3935 24.244 22.2702 24.5715 22.0643C24.8998 21.8166 25.1048 21.5691 25.1865 21.3218H27.1948C26.8665 22.311 26.3748 23.0118 25.7198 23.4652C25.0632 23.8777 24.2848 24.1252 23.3423 24.1252C22.7394 24.1261 22.1416 24.0141 21.5798 23.7952C21.0741 23.6066 20.6233 23.2949 20.2682 22.8885C19.8867 22.5096 19.6053 22.042 19.449 21.5277C19.244 20.9918 19.1615 20.4152 19.1615 19.7552C19.1615 19.1368 19.244 18.5602 19.449 18.0235C19.6456 17.5065 19.9376 17.031 20.3098 16.6218C20.6782 16.251 21.129 15.9218 21.6207 15.7152C22.168 15.4954 22.7525 15.3834 23.3423 15.3852C24.039 15.3852 24.654 15.5093 25.1865 15.7977C25.7198 16.086 26.129 16.416 26.4565 16.911C26.7848 17.3643 27.0315 17.9002 27.1948 18.4777C27.2765 19.0543 27.3173 19.6318 27.2765 20.291H21.334C21.334 20.951 21.5798 21.5693 21.9081 21.8993M24.4898 17.571C24.2032 17.2827 23.7523 17.1177 23.219 17.1177C22.9063 17.113 22.597 17.1836 22.3173 17.3235C22.0715 17.4477 21.9082 17.6127 21.744 17.7777C21.5922 17.9364 21.4922 18.1375 21.4573 18.3543C21.4157 18.561 21.3748 18.7252 21.3748 18.8902H25.0632C24.9815 18.2718 24.7765 17.8602 24.4898 17.571ZM20.8832 13.2418H25.4732V14.3552H20.884L20.8832 13.2418Z" fill="white"/>
</svg>
