<svg width="144" height="44" viewBox="0 0 144 44" fill="none" xmlns="http://www.w3.org/2000/svg">
<g clip-path="url(#clip0_5792_4292)">
<path d="M53.0591 30.6687C49.7484 30.6687 46.7175 28.1489 46.7175 23.4362C46.7175 18.7234 49.7484 16.297 53.0591 16.297C56.4164 16.297 59.4006 18.7234 59.4006 23.4362C59.4006 28.1957 56.4164 30.6687 53.0591 30.6687ZM53.0591 11.3975C46.2979 11.3975 41.3086 16.4836 41.3086 23.4362C41.3086 30.4354 46.2979 35.5215 53.0591 35.5215C59.8669 35.5215 64.8562 30.4354 64.8562 23.4362C64.8562 16.4836 59.8669 11.3975 53.0591 11.3975Z" fill="#3571F0"/>
<path d="M75.3531 34.8215V31.7885C76.6587 33.9816 79.13 35.3815 82.3474 35.3815C88.9688 35.3815 93.0255 30.202 93.0255 23.3427C93.0255 16.6701 89.3418 11.4908 82.5339 11.4908C79.0368 11.4908 76.4256 13.1238 75.3997 14.897V1.03857H70.084V34.8215H75.3531ZM87.5699 23.3894C87.5699 27.8689 85.0054 30.5752 81.4615 30.5752C78.0109 30.5752 75.3531 27.8689 75.3531 23.3894C75.3531 18.8632 78.0109 16.2969 81.4615 16.2969C85.052 16.2969 87.5699 18.8632 87.5699 23.3894Z" fill="#3571F0"/>
<path d="M103.588 34.8213V12.0971H98.226V34.8213H103.588ZM97.3867 4.11805C97.3867 6.07783 98.9722 7.61766 100.884 7.61766C102.842 7.61766 104.428 6.07783 104.428 4.11805C104.428 2.15827 102.842 0.571777 100.884 0.571777C98.9722 0.571777 97.3867 2.15827 97.3867 4.11805Z" fill="#3571F0"/>
<path d="M117.422 5.14453H112.526V8.55081C112.526 10.5573 111.453 12.0971 109.029 12.0971H107.863V16.9032H112.06V28.3353C112.06 32.5815 114.671 35.1011 118.868 35.1011C120.826 35.1011 121.852 34.7279 122.179 34.5879V30.1084C121.946 30.1551 121.06 30.295 120.313 30.295C118.308 30.295 117.422 29.4552 117.422 27.4487V16.9032H122.131V12.0971H117.422V5.14453Z" fill="#3571F0"/>
<path d="M126.047 28.6622C126.327 31.2286 128.846 35.5215 135.42 35.5215C141.202 35.5215 144 31.6952 144 28.2423C144 24.8827 141.762 22.2696 137.471 21.3364L134.021 20.6365C132.623 20.3565 131.737 19.4699 131.737 18.2567C131.737 16.8569 133.089 15.6437 135 15.6437C138.031 15.6437 139.01 17.7435 139.197 19.0499L143.767 17.7435C143.394 15.5037 141.342 11.3975 135 11.3975C130.291 11.3975 126.654 14.7571 126.654 18.7234C126.654 21.8497 128.752 24.4627 132.762 25.3493L136.119 26.0959C137.937 26.4691 138.777 27.4024 138.777 28.6155C138.777 30.0154 137.612 31.2286 135.373 31.2286C132.482 31.2286 130.944 29.4089 130.757 27.3557L126.047 28.6622Z" fill="#3571F0"/>
<path d="M25.3379 12.0957H30.6648V34.8215H25.3379V12.0957Z" fill="#3571F0"/>
<path d="M39.3382 15.6677C39.3382 17.6405 37.7401 19.2397 35.7688 19.2397C33.7974 19.2397 32.1992 17.6405 32.1992 15.6677C32.1992 13.695 33.7974 12.0957 35.7688 12.0957C37.7401 12.0957 39.3382 13.695 39.3382 15.6677Z" fill="#3571F0"/>
<path d="M5.36234 43.687V32.255C6.52807 33.9815 8.99942 35.3814 12.2634 35.3814C18.7916 35.3814 22.9415 30.2486 22.9415 23.436C22.9415 16.7167 19.1645 11.584 12.45 11.584C8.95279 11.584 6.34155 13.2172 5.22246 15.1769V12.0972H0V43.687H5.36234ZM17.5325 23.436C17.5325 27.7755 15.0146 30.5752 11.4241 30.5752C7.88032 30.5752 5.31571 27.7755 5.31571 23.436C5.31571 19.1898 7.88032 16.3901 11.4241 16.3901C15.0612 16.3901 17.5325 19.1898 17.5325 23.436Z" fill="#3571F0"/>
</g>
<defs>
<clipPath id="clip0_5792_4292">
<rect width="144" height="44" fill="white"/>
</clipPath>
</defs>
</svg>
