<svg width="36" height="36" viewBox="0 0 36 36" fill="none" xmlns="http://www.w3.org/2000/svg">
<rect width="36" height="36" rx="18" fill="#3571F0" fill-opacity="0.2"/>
<path d="M13.7826 12.1665C13.7823 12.6086 13.6065 13.0324 13.2938 13.3448C12.9811 13.6572 12.5571 13.8326 12.1151 13.8324C11.673 13.8321 11.2492 13.6563 10.9368 13.3436C10.6244 13.0309 10.449 12.6069 10.4492 12.1649C10.4494 11.7228 10.6252 11.299 10.938 10.9866C11.2507 10.6742 11.6747 10.4988 12.1167 10.499C12.5587 10.4992 12.9826 10.6751 13.295 10.9878C13.6074 11.3005 13.7828 11.7245 13.7826 12.1665ZM13.8326 15.0665H10.4992V25.4999H13.8326V15.0665ZM19.0992 15.0665H15.7826V25.4999H19.0659V20.0249C19.0659 16.9749 23.0409 16.6915 23.0409 20.0249V25.4999H26.3326V18.8915C26.3326 13.7499 20.4492 13.9415 19.0659 16.4665L19.0992 15.0665Z" fill="white"/>
</svg>
