<svg width="20" height="18" viewBox="0 0 20 18" fill="none" xmlns="http://www.w3.org/2000/svg">
<path d="M12.45 14L10 17.5L7.55 14L1 14C0.734783 14 0.480429 13.8946 0.292893 13.7071C0.105357 13.5196 -8.57037e-08 13.2652 -8.39902e-08 13L-6.46078e-09 1C-4.74728e-09 0.734783 0.105357 0.48043 0.292893 0.292893C0.48043 0.105357 0.734783 4.74728e-09 1 6.46078e-09L19 1.22755e-07C19.2652 1.24468e-07 19.5196 0.105357 19.7071 0.292893C19.8946 0.48043 20 0.734784 20 1L20 13C20 13.2652 19.8946 13.5196 19.7071 13.7071C19.5196 13.8946 19.2652 14 19 14L12.45 14Z" fill="white"/>
</svg>
