<svg width="90" height="90" viewBox="0 0 90 90" fill="none" xmlns="http://www.w3.org/2000/svg">
<path d="M79.2439 44.5302H69.6814V40.0271C69.6814 31.1107 73.7249 22.9265 80.7129 17.4107C80.8063 17.4107 80.8063 17.3174 80.8961 17.2276V17.1342C81.8154 16.3083 81.9985 15.0191 81.1726 14.0101C80.7129 13.4571 79.887 13.0908 79.1509 13.1842C79.0575 13.1842 78.9677 13.0908 78.8744 13.0908C62.3271 14.9294 49.3633 29.821 49.3633 46.9216L49.3669 74.4066C49.3669 75.7856 50.4693 76.888 51.8482 76.888H79.3332C80.7121 76.888 81.8145 75.7856 81.8145 74.4066L81.8181 46.9216C81.7248 45.6325 80.6228 44.5302 79.2439 44.5302Z" fill="#2C49D3"/>
<path d="M38.1543 44.5302H28.5018V40.0271C28.5018 31.1107 32.5452 22.9265 39.5333 17.4107C39.6266 17.4107 39.6266 17.3174 39.6266 17.2276C39.72 17.2276 39.72 17.2276 39.72 17.1342C40.5459 16.3083 40.7327 15.0191 39.9965 14.0101C39.4435 13.4571 38.711 13.0908 37.9748 13.1842C37.8814 13.1842 37.7916 13.0908 37.6983 13.0908C21.151 14.9294 8.18718 29.821 8.18718 46.9216L8.18359 74.4066C8.18359 75.7856 9.28601 76.888 10.6649 76.888H38.1499C39.5289 76.888 40.6313 75.7856 40.6313 74.4066L40.6349 46.9216C40.5415 45.6325 39.4399 44.5302 38.1543 44.5302Z" fill="#2C49D3"/>
</svg>
