<svg width="48" height="48" viewBox="0 0 48 48" fill="none" xmlns="http://www.w3.org/2000/svg">
<path d="M42.2645 23.7496H37.1645V21.348C37.1645 16.5926 39.321 12.2276 43.0479 9.28589C43.0977 9.28589 43.0977 9.2361 43.1456 9.18821V9.13842C43.6359 8.69792 43.7336 8.01036 43.2931 7.47222C43.0479 7.17728 42.6075 6.98193 42.2148 7.03173C42.165 7.03173 42.1172 6.98193 42.0674 6.98193C33.2422 7.96251 26.3281 15.9047 26.3281 25.0251L26.33 39.6837C26.33 40.4191 26.918 41.0071 27.6534 41.0071H42.3121C43.0475 41.0071 43.6355 40.4191 43.6355 39.6837L43.6374 25.0251C43.5876 24.3375 42.9999 23.7496 42.2645 23.7496Z" fill="#2C49D3"/>
<path d="M20.3477 23.7496H15.1996V21.348C15.1996 16.5926 17.3561 12.2276 21.0831 9.28589C21.1329 9.28589 21.1329 9.2361 21.1329 9.18821C21.1827 9.18821 21.1827 9.18821 21.1827 9.13842C21.6232 8.69792 21.7228 8.01036 21.3302 7.47222C21.0352 7.17728 20.6445 6.98193 20.2519 7.03173C20.2021 7.03173 20.1542 6.98193 20.1044 6.98193C11.2792 7.96251 4.3652 15.9047 4.3652 25.0251L4.36328 39.6837C4.36328 40.4191 4.95124 41.0071 5.68667 41.0071H20.3453C21.0808 41.0071 21.6687 40.4191 21.6687 39.6837L21.6706 25.0251C21.6208 24.3375 21.0333 23.7496 20.3477 23.7496Z" fill="#2C49D3"/>
</svg>
