<svg width="29" height="28" viewBox="0 0 29 28" fill="none" xmlns="http://www.w3.org/2000/svg">
<path d="M8.26488 22.2441L8.26483 22.244C8.24177 22.2179 8.24496 22.1795 8.26969 22.1577L8.27044 22.157C8.29659 22.1339 8.33602 22.1372 8.35774 22.1619L8.35839 22.1626C9.25509 23.1767 10.3654 24.0017 11.6199 24.5667C12.8246 25.1098 14.1624 25.4113 15.5704 25.4113C18.2278 25.4113 20.6337 24.3336 22.3754 22.593L22.3755 22.5929C24.1163 20.8521 25.194 18.445 25.194 15.7877C25.194 13.1303 24.1163 10.7243 22.3757 8.98258L22.3755 8.98247C20.6348 7.24168 18.2277 6.16401 15.5704 6.16401C14.1621 6.16401 12.8244 6.46662 11.6202 7.0085L11.62 7.00856C10.3655 7.57356 9.25517 8.39856 8.3584 9.4127L8.35773 9.41346C8.33647 9.4376 8.29779 9.44202 8.27007 9.41797C8.24468 9.39516 8.24276 9.35626 8.26484 9.33129C9.17651 8.3009 10.3016 7.46454 11.5674 6.89318C12.7893 6.342 14.1435 6.03522 15.5704 6.03522C18.2636 6.03522 20.7006 7.12655 22.4661 8.89198C24.2314 10.6573 25.3228 13.0942 25.3228 15.7876C25.3228 18.4801 24.2315 20.9179 22.4661 22.6833C20.7006 24.4487 18.2639 25.54 15.5704 25.54C14.1446 25.54 12.7901 25.2333 11.5673 24.682C10.3006 24.1107 9.17662 23.2754 8.26488 22.2441ZM17.093 14.2727L17.0919 14.2716L17.0861 14.2658L17.0855 14.2652C16.9722 14.1523 16.8463 14.052 16.71 13.9667H17.0934H17.0944H17.4824L17.2501 14.1991L17.4745 14.5395C17.7099 14.8965 17.8469 15.3253 17.8469 15.7874C17.8469 16.4152 17.5926 16.9835 17.1804 17.3956C16.7683 17.8077 16.2001 18.0621 15.5712 18.0621C14.9426 18.0621 14.3751 17.8079 13.9617 17.3953C13.5498 16.9832 13.2956 16.4151 13.2956 15.7874C13.2956 15.159 13.5497 14.5916 13.962 14.1782C14.3741 13.7662 14.9424 13.5117 15.5712 13.5117C15.8048 13.5117 16.0296 13.5467 16.2412 13.6118L16.1372 13.7158C15.9567 13.6666 15.7669 13.6404 15.5712 13.6404C14.9785 13.6404 14.4411 13.8811 14.0535 14.2687L14.0535 14.2687C13.6658 14.6564 13.4252 15.1949 13.4252 15.7864C13.4252 16.3791 13.6659 16.9166 14.0534 17.3042L14.0535 17.3042C14.4412 17.6919 14.9797 17.9325 15.5712 17.9325C16.1639 17.9325 16.7014 17.6918 17.089 17.3042L17.089 17.3042C17.4767 16.9165 17.7172 16.378 17.7172 15.7864C17.7172 15.1959 17.4778 14.66 17.093 14.2727ZM17.991 13.4581L17.8813 13.3859L19.1947 12.0725C19.2202 12.047 19.2597 12.047 19.2852 12.0725L19.6388 11.7189L19.2852 12.0725C19.3107 12.098 19.3107 12.1384 19.2852 12.1639L19.6388 12.5175L19.2852 12.1639L17.991 13.4581ZM5.11359 19.5212C5.07821 19.5212 5.04924 19.4921 5.04924 19.4568C5.04924 19.421 5.07781 19.3925 5.11359 19.3925H9.08414C9.11993 19.3925 9.14849 19.421 9.14849 19.4568C9.14849 19.4926 9.11992 19.5212 9.08414 19.5212H5.11359ZM3.74209 15.8519C3.7063 15.8519 3.67773 15.8233 3.67773 15.7875C3.67773 15.7517 3.7063 15.7232 3.74209 15.7232H7.71263C7.74842 15.7232 7.77698 15.7517 7.77698 15.7875C7.77698 15.8233 7.74842 15.8519 7.71263 15.8519H3.74209ZM5.61269 12.1826C5.5769 12.1826 5.54834 12.154 5.54834 12.1182C5.54834 12.0824 5.57689 12.0538 5.61269 12.0538H9.58323C9.61902 12.0538 9.64758 12.0824 9.64758 12.1182C9.64758 12.154 9.61903 12.1826 9.58323 12.1826H5.61269ZM12.545 2.58873C12.5092 2.58873 12.4806 2.56016 12.4806 2.52437C12.4806 2.48857 12.5092 2.46002 12.545 2.46002H18.5964C18.6322 2.46002 18.6607 2.48859 18.6607 2.52437C18.6607 2.56018 18.6322 2.58873 18.5964 2.58873H12.545Z" fill="black" stroke="#3571F0"/>
</svg>
