<svg width="131" height="40" viewBox="0 0 131 40" fill="none" xmlns="http://www.w3.org/2000/svg">
<g clip-path="url(#clip0_5837_865)">
<path d="M48.2698 27.8806C45.258 27.8806 42.5007 25.5899 42.5007 21.3056C42.5007 17.0212 45.258 14.8154 48.2698 14.8154C51.324 14.8154 54.0388 17.0212 54.0388 21.3056C54.0388 25.6324 51.324 27.8806 48.2698 27.8806ZM48.2698 10.3613C42.119 10.3613 37.5801 14.9851 37.5801 21.3056C37.5801 27.6685 42.119 32.2922 48.2698 32.2922C54.463 32.2922 59.0019 27.6685 59.0019 21.3056C59.0019 14.9851 54.463 10.3613 48.2698 10.3613Z" fill="white"/>
<path d="M68.5512 31.656V28.8988C69.739 30.8925 71.9872 32.1651 74.9141 32.1651C80.9377 32.1651 84.6282 27.4565 84.6282 21.2208C84.6282 15.1548 81.2771 10.4463 75.0838 10.4463C71.9024 10.4463 69.5269 11.9309 68.5936 13.5429V0.944336H63.7578V31.656H68.5512ZM79.6651 21.2632C79.6651 25.3355 77.3321 27.7958 74.1082 27.7958C70.9691 27.7958 68.5512 25.3355 68.5512 21.2632C68.5512 17.1485 70.9691 14.8155 74.1082 14.8155C77.3745 14.8155 79.6651 17.1485 79.6651 21.2632Z" fill="white"/>
<path d="M94.2375 31.6559V10.9976H89.3592V31.6559H94.2375ZM88.5957 3.7439C88.5957 5.52552 90.038 6.92536 91.7772 6.92536C93.5588 6.92536 95.001 5.52552 95.001 3.7439C95.001 1.96228 93.5588 0.52002 91.7772 0.52002C90.038 0.52002 88.5957 1.96228 88.5957 3.7439Z" fill="white"/>
<path d="M106.821 4.67725H102.367V7.77387C102.367 9.59794 101.391 10.9977 99.1855 10.9977H98.125V15.3669H101.943V25.7597C101.943 29.6199 104.318 31.9105 108.136 31.9105C109.917 31.9105 110.851 31.5712 111.148 31.4439V27.3716C110.936 27.4141 110.13 27.5413 109.451 27.5413C107.627 27.5413 106.821 26.7778 106.821 24.9537V15.3669H111.105V10.9977H106.821V4.67725Z" fill="white"/>
<path d="M114.668 26.0565C114.923 28.3896 117.214 32.2922 123.195 32.2922C128.455 32.2922 131 28.8138 131 25.6748C131 22.6206 128.964 20.2451 125.061 19.3967L121.922 18.7604C120.65 18.5059 119.844 17.6999 119.844 16.597C119.844 15.3244 121.074 14.2215 122.813 14.2215C125.57 14.2215 126.461 16.1304 126.631 17.3181L130.788 16.1304C130.449 14.0942 128.582 10.3613 122.813 10.3613C118.529 10.3613 115.22 13.4155 115.22 17.0212C115.22 19.8633 117.129 22.2388 120.777 23.0448L123.831 23.7235C125.485 24.0628 126.249 24.9112 126.249 26.0141C126.249 27.2867 125.189 28.3896 123.152 28.3896C120.522 28.3896 119.123 26.7353 118.953 24.8688L114.668 26.0565Z" fill="white"/>
<path d="M23.0508 10.9961H27.8968V31.6559H23.0508V10.9961Z" fill="white"/>
<path d="M35.7875 14.2434C35.7875 16.0368 34.3337 17.4906 32.5403 17.4906C30.7469 17.4906 29.293 16.0368 29.293 14.2434C29.293 12.45 30.7469 10.9961 32.5403 10.9961C34.3337 10.9961 35.7875 12.45 35.7875 14.2434Z" fill="white"/>
<path d="M4.87824 39.7156V29.3228C5.93873 30.8924 8.18697 32.165 11.1563 32.165C17.0951 32.165 20.8704 27.4988 20.8704 21.3056C20.8704 15.1971 17.4344 10.531 11.326 10.531C8.14455 10.531 5.76905 12.0157 4.75099 13.7973V10.9976H0V39.7156H4.87824ZM15.9497 21.3056C15.9497 25.2506 13.6591 27.7957 10.3928 27.7957C7.1689 27.7957 4.83582 25.2506 4.83582 21.3056C4.83582 17.4454 7.1689 14.9002 10.3928 14.9002C13.7015 14.9002 15.9497 17.4454 15.9497 21.3056Z" fill="white"/>
</g>
<defs>
<clipPath id="clip0_5837_865">
<rect width="131" height="40" fill="white"/>
</clipPath>
</defs>
</svg>
