<svg width="90" height="90" viewBox="0 0 90 90" fill="none" xmlns="http://www.w3.org/2000/svg">
<path d="M79.2439 44.5302H69.6814V40.0271C69.6814 31.1108 73.7249 22.9265 80.7129 17.4107C80.8063 17.4107 80.8063 17.3174 80.8961 17.2276V17.1342C81.8154 16.3083 81.9985 15.0191 81.1726 14.0101C80.7129 13.4571 79.887 13.0908 79.1509 13.1842C79.0575 13.1842 78.9677 13.0908 78.8744 13.0908C62.3271 14.9294 49.3633 29.821 49.3633 46.9217L49.3669 74.4066C49.3669 75.7856 50.4693 76.888 51.8482 76.888H79.3332C80.7121 76.888 81.8145 75.7856 81.8145 74.4066L81.8181 46.9217C81.7248 45.6325 80.6228 44.5302 79.2439 44.5302Z" fill="#DBDBE1"/>
<path d="M38.1524 44.5302H28.4998V40.0271C28.4998 31.1108 32.5432 22.9265 39.5313 17.4107C39.6247 17.4107 39.6247 17.3174 39.6247 17.2276C39.718 17.2276 39.718 17.2276 39.718 17.1342C40.544 16.3083 40.7307 15.0191 39.9945 14.0101C39.4415 13.4571 38.709 13.0908 37.9728 13.1842C37.8795 13.1842 37.7897 13.0908 37.6963 13.0908C21.1491 14.9294 8.18523 29.821 8.18523 46.9217L8.18164 74.4066C8.18164 75.7856 9.28405 76.888 10.663 76.888H38.148C39.5269 76.888 40.6293 75.7856 40.6293 74.4066L40.6329 46.9217C40.5395 45.6325 39.4379 44.5302 38.1524 44.5302Z" fill="#DBDBE1"/>
</svg>
